<svg width="63" height="59" viewBox="0 0 63 59" fill="none" xmlns="http://www.w3.org/2000/svg">
  <path
    d="M47.1345 51.0647L54.1826 27.7105C54.293 27.3447 54.3114 26.9598 54.2361 26.5863C54.1609 26.2127 53.9942 25.8605 53.7491 25.5575C53.504 25.2544 53.1871 25.0088 52.8235 24.8398C52.4599 24.6708 52.0594 24.583 51.6534 24.5835H36.5859C36.3699 24.5835 36.1567 24.5379 35.9622 24.45C35.7676 24.3621 35.5967 24.2343 35.4622 24.0759C35.3278 23.9176 35.2332 23.733 35.1855 23.5357C35.1378 23.3384 35.1382 23.1335 35.1868 22.9364L35.8431 20.2765C36.4442 17.8366 36.6371 15.323 36.4153 12.8277L36.2946 11.472C36.1652 10.0175 35.4895 8.65303 34.3875 7.621C33.3795 6.67677 32.0122 6.1462 30.5865 6.146H30.2715C29.4092 6.146 28.6151 6.58358 28.1978 7.28912L24.7078 13.1707C23.1433 15.8085 20.8111 17.976 17.9826 19.421L9.24263 23.8829C8.82827 24.0946 8.48254 24.4071 8.24186 24.7874C8.00118 25.1677 7.87444 25.6017 7.875 26.0437V50.396C7.875 51.048 8.15156 51.6733 8.64385 52.1343C9.13613 52.5953 9.80381 52.8543 10.5 52.8543H44.6079C45.1795 52.8542 45.7354 52.6793 46.1912 52.3563C46.647 52.0333 46.979 51.5798 47.1345 51.0647Z"
    stroke="#4B4B4B" stroke-width="2.5" stroke-linecap="round" stroke-linejoin="round" />
</svg>
  