<svg width="93" height="84" viewBox="0 0 93 84" fill="none" xmlns="http://www.w3.org/2000/svg">
  <g clip-path="url(#clip0_147_720)">
    <path
      d="M77.2727 18C79.2222 17.9995 81.0999 18.6188 82.5294 19.7339C83.9589 20.8489 84.8345 22.3772 84.9807 24.0125L85 24.5V63.5C85.0006 65.1399 84.2643 66.7193 82.9388 67.9218C81.6132 69.1242 79.7963 69.8608 77.8523 69.9838L77.2727 70H15.4545C13.505 70.0005 11.6274 69.3812 10.1979 68.2661C8.76841 67.1511 7.8928 65.6228 7.74659 63.9875L7.72727 63.5V60.25H15.4545V63.5H77.2727V29.0955L50.4591 51.6505C49.4449 52.5035 48.0907 53.0099 46.6584 53.0717C45.2261 53.1335 43.8175 52.7464 42.7048 51.9852L42.2643 51.6505L15.4545 29.0955V31H7.72727V24.5C7.72666 22.8601 8.46293 21.2807 9.78851 20.0782C11.1141 18.8758 12.931 18.1392 14.875 18.0163L15.4545 18H77.2727ZM23.1818 47.25C24.2065 47.25 25.1892 47.5924 25.9138 48.2019C26.6384 48.8114 27.0455 49.638 27.0455 50.5C27.0455 51.362 26.6384 52.1886 25.9138 52.7981C25.1892 53.4076 24.2065 53.75 23.1818 53.75H3.86364C2.83894 53.75 1.85621 53.4076 1.13163 52.7981C0.407061 52.1886 0 51.362 0 50.5C0 49.638 0.407061 48.8114 1.13163 48.2019C1.85621 47.5924 2.83894 47.25 3.86364 47.25H23.1818ZM71.8095 24.5H20.9177L46.3636 45.9045L71.8095 24.5ZM19.3182 37.5C20.3029 37.5009 21.2501 37.8181 21.9662 38.3868C22.6823 38.9554 23.1132 39.7326 23.1709 40.5595C23.2286 41.3865 22.9088 42.2007 22.2767 42.836C21.6447 43.4712 20.7481 43.8794 19.7702 43.9773L19.3182 44H7.72727C6.74251 43.9991 5.79533 43.6819 5.07926 43.1132C4.36319 42.5446 3.93227 41.7674 3.87456 40.9405C3.81685 40.1135 4.1367 39.2993 4.76875 38.664C5.4008 38.0288 6.29736 37.6206 7.27523 37.5227L7.72727 37.5H19.3182Z"
      fill="#4B4B4B" />
  </g>
  <defs>
    <clipPath id="clip0_147_720">
      <rect width="93" height="84" fill="white" />
    </clipPath>
  </defs>
</svg>