<svg width="77" height="75" viewBox="0 0 77 75" fill="none" xmlns="http://www.w3.org/2000/svg">
  <path
    d="M31.7795 3.08999C23.9929 3.08999 16.9278 4.88472 11.7024 7.88267C6.47675 10.8809 2.98889 15.2022 2.98889 20.1695C2.98889 25.0826 6.40156 29.3702 11.533 32.3643L7.24224 47.9142L21.8256 36.2183C24.9312 36.8892 28.281 37.2529 31.7794 37.2529C39.566 37.2529 46.6359 35.4582 51.8613 32.46C57.0868 29.462 60.5745 25.1362 60.5745 20.1692C60.5745 15.2022 57.087 10.8806 51.8615 7.88281C46.636 4.88472 39.5661 3.08984 31.7798 3.08984L31.7795 3.08999ZM31.7795 5.82734C39.1186 5.82734 45.7457 7.55146 50.4325 10.2403C55.1192 12.9292 57.764 16.4582 57.764 20.169C57.764 23.8807 55.1194 27.4137 50.4325 30.1027C45.7455 32.7917 39.1186 34.5156 31.7795 34.5156C24.4405 34.5156 17.813 32.7916 13.1261 30.1026C8.4395 27.4136 5.79939 23.8805 5.79939 20.169C5.79939 16.4577 8.4395 12.9292 13.1264 10.2403C17.813 7.55132 24.44 5.8272 31.7791 5.8272L31.7795 5.82734ZM14.5172 13.1746V15.9121H28.5225V13.1744H14.5172V13.1746ZM31.333 13.1746V15.9121H35.5581V13.1744H31.333V13.1746ZM38.3683 13.1746V15.9121H49.1919V13.1744H38.3683V13.1746ZM14.5175 19.0202V21.7624H18.9777V19.0202H14.5172H14.5175ZM21.7882 19.0202V21.7624H31.7046V19.0202H21.7882ZM34.5196 19.0202V21.7624H40.2488V19.0202H34.5192H34.5196ZM43.0591 19.0202V21.7624H49.1923V19.0202H43.0594H43.0591ZM14.5175 24.4307V27.1685H25.1763V24.4307H14.5172H14.5175ZM27.9868 24.4307V27.1685H36.5636V24.4307H27.9868ZM39.3744 24.4307L39.3741 27.1685H49.1919V24.4307H39.3744ZM53.2618 37.6509C42.0005 37.6509 32.8697 43.7684 32.8697 51.3154C32.8697 58.8625 42.0008 64.9795 53.2618 64.9795C56.0034 64.9795 58.6191 64.6162 61.0069 63.9588L71.3132 71.4523L67.5725 61.0476C71.3243 58.5693 73.6538 55.1249 73.6538 51.3154C73.6538 43.7688 64.523 37.6514 53.2618 37.6514V37.6509ZM42.6827 43.8538H47.6316V46.5913H42.6824V43.8538H42.6827ZM50.4419 43.8538H64.0288V46.5913H50.4419V43.8538ZM38.5656 49.9695H50.3433V52.707H38.5658L38.5656 49.9695ZM53.1538 49.9695H56.3072V52.707H53.1535L53.1538 49.9695ZM59.1177 49.9695H66.7876V52.707H59.1177V49.9695ZM42.683 55.6824H54.5729V58.4199H42.6827V55.6824H42.683ZM57.3834 55.6824H64.0288V58.4199H57.3834V55.6824Z"
    fill="#4B4B4B" />
</svg>